<svg xmlns="http://www.w3.org/2000/svg" width="1801" height="182" viewBox="0 0 1801 182" id="logo" style="translate: none; rotate: none; scale: none; transform: translate(0px);">
  <g fill="#1E1E1E" fill-rule="evenodd" transform="translate(.258 .82)" style="--darkreader-inline-fill: #171819;" data-darkreader-inline-fill="">
    <polygon points="1116.164 93.473 1113.359 100.162 1110.555 93.473 1060.931 4.581 1015.405 4.581 1015.405 177.187 1060.931 177.187 1060.931 87.218 1095.45 151.297 1131.049 151.297 1165.572 87.218 1165.572 177.187 1211.098 177.187 1211.098 4.581 1165.572 4.581"></polygon>
    <path d="M1319.08397,108.359932 L1340.44538,43.4175949 L1361.58924,108.359932 L1319.08397,108.359932 Z M1312.39861,4.58134152 L1248.10201,177.187104 L1294.49038,177.187104 L1304.62894,149.356154 L1376.26182,149.356154 L1386.6162,177.187104 L1432.78875,177.187104 L1368.49561,4.58134152 L1312.39861,4.58134152 Z"></path>
    <polygon points="1431.974 45.36 1490.661 45.36 1490.661 177.187 1536.186 177.187 1536.186 45.36 1594.873 45.36 1594.873 4.365 1431.974 4.365"></polygon>
    <path d="M1708.51993 137.703378C1683.49297 137.703378 1663.6406 116.775346 1663.6406 90.8833594 1663.6406 64.5614512 1683.49297 44.0650672 1708.51993 44.0650672 1733.54689 44.0650672 1753.61163 65.2089235 1753.61163 90.8833594 1753.61163 116.775346 1733.54689 137.703378 1708.51993 137.703378M1708.51993.912331672C1655.87611.912331672 1617.25396 40.397784 1617.25396 90.8833594 1617.25396 141.370662 1655.87611 180.856114 1708.51993 180.856114 1761.3813 180.856114 1800 141.370662 1800 90.8833594 1800 40.397784 1761.3813.912331672 1708.51993.912331672M61.0764961 140.010452 61.0764961 136.558992 61.0764961 42.5529172C61.0764961 27.4176041 63.4661007 14.9360643 71.4308736 4.58168684L0 4.58168684C6.63702299 13.3441456 9.29424941 26.3557495 10.0902087 39.3673534L10.356104 138.682702C9.82431342 152.75616 7.16881359 167.627305 0 177.187449L124.542597 177.187449 139.679636 125.139307C129.321806 134.169388 103.296872 140.010452 79.1332043 140.010452L61.0764961 140.010452ZM248.918923 4.5809962 177.486323 4.5809962C184.125072 13.343455 186.780572 26.3550589 187.576531 39.3666627L187.842427 138.683738C187.310636 152.757196 184.656863 167.628341 177.486323 177.186759L248.918923 177.186759C240.952423 166.830655 238.562819 151.695342 238.562819 136.558302L238.562819 42.5539531C238.562819 27.4169135 240.952423 14.9371002 248.918923 4.5809962M365.572717 139.478661 355.480781 139.478661 355.480781 136.558992 355.480781 42.5529172 366.900467 42.5529172C390.799965 42.5529172 410.450318 58.7518115 410.450318 90.0877454 409.654359 119.298244 394.783215 139.478661 365.572717 139.478661M368.494112 4.84585554 365.572717 4.84585554 365.838612 4.58168684 294.406012 4.58168684C301.043035 13.3441456 303.700261 26.3557495 304.49622 39.3673534L304.762116 138.682702C304.230325 152.75616 301.574825 167.627305 294.406012 177.187449L368.494112 177.187449C416.027213 177.187449 463.824484 144.523765 463.824484 90.3519142 463.824484 35.382377 422.931858 4.84585554 368.494112 4.84585554M570.759114 4.5809962 499.326514 4.5809962C505.965263 13.343455 508.620763 26.3550589 509.416722 39.3666627L509.682618 138.683738C509.150827 152.757196 506.497054 167.628341 499.326514 177.186759L570.759114 177.186759C562.792614 166.830655 560.40301 151.695342 560.40301 136.558302L560.40301 42.5539531C560.40301 27.4169135 562.792614 14.9371002 570.759114 4.5809962M668.05832 109.381212 685.075619 55.136844 688.268089 41.8420789 691.458833 55.9345299 708.743754 109.381212 668.05832 109.381212ZM768.067758 138.68322 727.439302 23.7007676C725.845656 17.0602915 727.70347 10.4215419 730.624865 4.58047822L652.555242 4.58047822C654.413056 9.62558258 657.866242 18.1221461 655.209016 25.8244769L614.050495 149.039324C609.535454 160.723178 604.224455 171.345177 596.257955 177.187967L656.006701 177.187967C652.819411 170.815113 650.165638 163.378677 653.085306 155.943969L656.27087 146.647993 720.534657 146.647993 723.987842 157.537614C725.579761 164.440532 722.924261 171.345177 720.002866 177.187967L789.577652 177.187967C779.221548 169.219741 773.644653 154.616219 768.067758 138.68322L768.067758 138.68322Z"></path>
    <polygon points="868.431 4.581 902.221 108.36 829.98 108.36 814.71 149.356 916.892 149.356 927.248 177.187 978.401 177.187 914.108 4.581"></polygon>
    <path d="M787.494,62.264392 C787.494,56.760014 789.716125,52.4694307 797.190546,47.6539632 L815.048696,65.2082329 C810.288479,71.4343267 806.319042,74.1778828 799.756263,74.1778828 C791.63955,74.1778828 787.494,68.4352349 787.494,62.264392 M802.556796,10.5443026 C809.162741,10.5443026 811.43321,15.4702721 811.43321,19.9766795 C811.43321,24.847398 808.789797,28.9083444 801.253219,33.5822313 C796.182215,28.4525239 793.866854,24.8076863 793.866854,20.0250241 C793.866854,14.5810768 797.102489,10.5443026 802.556796,10.5443026 M823.395046,73.4130022 L836.171833,85.9722387 L855.694418,85.9722387 L831.135361,62.3610812 L851.479805,32.4185077 L846.866349,18.2466334 L822.602539,54.1563119 L808.991808,41.068738 C818.950796,35.2052286 824.116761,29.2985544 824.116761,19.7660352 C824.116761,9.59985635 817.137873,0 802.753628,0 C787.989532,0 780.489213,9.95726107 780.489213,20.6310582 C780.489213,27.9414524 783.67305,33.6478418 789.500301,39.9947972 C776.842649,47.3638956 772.75753,54.7468067 772.75753,63.4643741 C772.75753,76.793671 782.467888,87.1221495 798.395707,87.1221495 C810.481858,87.1221495 816.680326,82.2427981 823.395046,73.4130022"></path>
  </g>
</svg>