<svg class="CLASS" onclick="ONCLICK" xmlns="http://www.w3.org/2000/svg" xmlns:xlink="http://www.w3.org/1999/xlink" viewBox="0 0 384 195.3"><style>.st0{fill:#6f6f6e}.st1{fill:#e3032e}.st3{fill:url(#SVGID_00000168808829467475428190000015609817177472665019_)}.st4{opacity:.2;clip-path:url(#SVGID_00000112616234942694573860000012430564291092645766_);fill:#fff}</style><style class="darkreader darkreader--sync" media="screen"></style><path class="st0" d="M47.8 87.7c0 12.9-8.4 20.4-22.9 20.4H9.5v18.6H2.8V68h22.1c14.5 0 22.9 7.2 22.9 19.7zm-6.5.2c0-9-6.1-13.7-16.7-13.7H9.5v27.7h15.1c10.6 0 16.7-4.8 16.7-14zM82.1 126.7v-6.9c-3.5 4.8-9.1 7.1-16.2 7.1-9.1 0-15-5.8-15-13.3 0-7.7 6.1-12.6 16.5-12.7h14.5v-2.8c0-6.5-4-10.4-11.8-10.4-4.9 0-9.4 1.8-14 5.1l-2.8-4.6c5.7-3.8 10.5-6 18-6 10.9 0 16.9 5.8 17 15.2l.1 29.2h-6.3zm-.1-15.2v-5.4H68.3c-7.4 0-11.2 2.3-11.2 7.2s3.9 8.1 10.2 8.1c7.3.1 13-3.6 14.7-9.9zM138.2 82.6v39.5c0 12.9-8.8 21.1-22.2 21.1-7-.1-12.8-2.3-18.1-6.5l3-4.8c4.4 3.6 9 5.5 14.8 5.6 9.6 0 15.9-6 15.9-15.3v-6.7c-3.1 5.9-8.8 9.2-16.3 9.2-11.9 0-20.1-8.8-20.1-21.3 0-12.4 8.1-21.1 20-21.1 7.5-.1 13.3 3.4 16.4 9.2v-9h6.6zm-6.5 21c0-9.2-6.3-15.9-15.1-15.9-8.9 0-15.1 6.6-15.2 15.9.1 9.1 6.3 15.8 15.2 15.8 8.8 0 15.1-6.6 15.1-15.8zM190.1 104.6c0 13.2-9.3 22.4-22.4 22.4-13.2 0-22.4-9.2-22.4-22.4 0-13.1 9.2-22.2 22.4-22.2 13.1-.1 22.4 9.1 22.4 22.2zm-38.3 0c0 9.9 6.5 16.6 15.9 16.6 9.2 0 15.9-6.7 15.9-16.6 0-9.7-6.6-16.5-15.9-16.5s-15.9 6.8-15.9 16.5z"></path><path class="st1" d="M252.5 97.3c0 17.3-12.8 29.4-31.4 29.4h-24.4V68h24.9c18.2 0 30.9 12 30.9 29.3zm-13.5.1c0-10.8-7.6-18.3-17.6-18.3H210v36.4h12c9.8 0 17-7.3 17-18.1zM272.8 68v58.7h-13.3V68h13.3zM296.5 68v47.1h25.2v11.6h-38.4V68h13.2z"></path><path class="st0" d="M17.8 165.6c0 4.4-2.9 7.5-7.1 7.5-2.7 0-4.7-1.2-5.8-3.3v3.2H2.7v-21h2.2v9.3C6 159.2 8 158 10.7 158c4.2 0 7.1 3.1 7.1 7.6zm-2.2-.1c0-3.2-2.2-5.6-5.3-5.6-3.1 0-5.4 2.4-5.4 5.6 0 3.3 2.2 5.6 5.4 5.6 3.1 0 5.3-2.3 5.3-5.6z"></path><path class="st0" d="M20.4 178.6c-1.2 0-2.2-.3-3.1-1.1l.9-1.8c.7.5 1.4.7 2.1.7 1.2 0 2.1-.7 2.7-2.2l.6-1.4-6.2-14.8h2.3l5 12.4 4.7-12.4h2.3l-6.9 17.1c-.9 2.3-2.4 3.5-4.4 3.5z"></path><g><path class="st1" d="M61.8 177.9c-.4 1.5-1 2.7-2.1 3.7-1.1 1.1-2.8 2.1-4.8 2.4-1 .2-1.6.3-2.7.3-7.2 0-10.9-5-10.9-11.8 0-6.7 3.5-12.1 10.7-12.1 2.5 0 4.3.5 5.9 1.5 1.8 1.1 3.1 2.7 3.7 3.5l4.8-2.3c-2.9-4.4-7.6-6.3-13.6-6.3-10.4 0-17 5.9-17 15.6 0 9.3 5.7 15.5 16.5 15.5 7.2 0 14.4-3 15.2-10h-5.7zM83.4 188.2c-8.8 0-13.7-4.2-13.7-11.8 0-7.5 5-11.8 13.7-11.8 8.8 0 13.7 4.2 13.7 11.8.1 7.7-4.8 11.8-13.7 11.8zm0-20.3c-5.4 0-8.9 3.4-8.9 8.6 0 5.2 3.5 8.6 8.9 8.6s8.9-3.4 8.9-8.6c.1-5.3-3.4-8.6-8.9-8.6zM107.3 187.4h-4.5v-18.8h-5.7v-3.2h5.7v-1.1c0-6 2.5-8.6 8-8.6 1.3 0 2.8.1 4 .3h.1v3.2h-.2c-.5-.1-1.6-.3-2.8-.3-3.3 0-4.6 1.3-4.6 4.7v1.8h7v3.2h-7v18.8zM161.4 160.5h-4.5v-4.6h4.5v4.6zM161.4 187.4h-4.5v-19.9l4.3-2h.2v21.9zM122.5 160.5H118v-4.6h4.5v4.6zM122.5 187.4H118v-19.9l4.5-2.1v22z"></path><g><path class="st1" d="M176.4 188.2c-5.6 0-9.4-1.8-10.7-5l-.1-.1 4.4-2.1v.2c.4 2.5 2.7 3.7 6.8 3.7 4.5 0 6.9-1.3 6.9-3.6 0-2.1-3.2-2.6-6.9-3.2-5-.8-10.6-1.7-10.6-6.7 0-4.4 3.9-6.9 10.7-6.9 3.6 0 8.4.7 10.1 4.1l.1.1-4 1.9-.1-.1c-.7-1.9-2.6-2.7-5.9-2.7-3.8 0-6.3 1.3-6.3 3.1 0 1.4 1.4 2.3 4.5 2.9l7.2 1.3c4.2.8 6.1 2.6 6.1 5.8 0 5-4 7.3-12.2 7.3z"></path></g><g><path class="st1" d="M138.3 188.2c-7 0-12.2-5.1-12.2-11.8 0-6.7 5.3-11.8 12.2-11.8 4 0 7 1.1 9.4 3.5V158l4.3-2h.2v26.2c0 1.4.1 3.1.2 5.1v.2h-4.5v-.1c-.1-.8-.2-1.7-.2-2.7-2.2 2.2-5.6 3.5-9.4 3.5zm1-20.3c-5.1 0-8.4 3.4-8.4 8.6 0 5.2 3.3 8.6 8.4 8.6 5.1 0 8.4-3.4 8.4-8.6 0-5.3-3.3-8.6-8.4-8.6z"></path></g></g><linearGradient id="SVGID_1_" gradientUnits="userSpaceOnUse" x1="351.946" y1="135.39" x2="218.761" y2="60.198"><stop offset="0" stop-color="#f29100" style="--darkreader-inline-stopcolor: #c27400;" data-darkreader-inline-stopcolor=""></stop><stop offset=".42" stop-color="#f29100" style="--darkreader-inline-stopcolor: #c27400;" data-darkreader-inline-stopcolor=""></stop><stop offset="1" stop-color="#ffcb00" style="--darkreader-inline-stopcolor: #997a00;" data-darkreader-inline-stopcolor=""></stop></linearGradient><path d="M285.2 1.4c-37.5 0-70 21.4-85.9 52.7h22.3c13.9-20.2 37.1-33.5 63.5-33.5 42.5 0 77 34.5 77 77s-34.5 77-77 77c-26.4 0-49.6-13.3-63.5-33.5h-22.3c15.9 31.3 48.4 52.7 85.9 52.7 53.2 0 96.3-43.1 96.3-96.3S338.4 1.4 285.2 1.4z" fill="url(#SVGID_1_)"></path><linearGradient id="SVGID_00000175291514252850922990000003885547177973314980_" gradientUnits="userSpaceOnUse" x1="211.015" y1="176.417" x2="355.881" y2="139.188"><stop offset="0" stop-color="#e3032e" style="--darkreader-inline-stopcolor: #b60225;" data-darkreader-inline-stopcolor=""></stop><stop offset="1" stop-color="#e3032e" stop-opacity="0" style="--darkreader-inline-stopcolor: #b60225;" data-darkreader-inline-stopcolor=""></stop></linearGradient><path d="M362.3 97.7c0 42.5-34.5 77-77 77-26.4 0-49.6-13.3-63.5-33.5h-22.3c15.9 31.3 48.4 52.7 85.9 52.7 53.2 0 96.3-43.1 96.3-96.3" fill="url(#SVGID_00000175291514252850922990000003885547177973314980_)"></path><g><defs><path id="SVGID_00000048487464754956283990000014873688483009225646_" d="M285.2 1.4c-37.5 0-70 21.4-85.9 52.7h22.3c13.9-20.2 37.1-33.5 63.5-33.5 42.5 0 77 34.5 77 77s-34.5 77-77 77c-26.4 0-49.6-13.3-63.5-33.5h-22.3c15.9 31.3 48.4 52.7 85.9 52.7 53.2 0 96.3-43.1 96.3-96.3S338.4 1.4 285.2 1.4z"></path></defs><clipPath id="SVGID_00000123439543309937139140000012720958975024722079_"><use xlink:href="#SVGID_00000048487464754956283990000014873688483009225646_" overflow="visible"></use></clipPath><circle cx="295.3" cy="97.6" r="84.2" opacity=".2" clip-path="url(#SVGID_00000123439543309937139140000012720958975024722079_)" fill="#fff" style="--darkreader-inline-fill: #e8e6e3;" data-darkreader-inline-fill=""></circle></g></svg>